<?xml version="1.0" encoding="UTF-8" standalone="no"?>
<!DOCTYPE svg PUBLIC "-//W3C//DTD SVG 1.1//EN" "http://www.w3.org/Graphics/SVG/1.1/DTD/svg11.dtd">
<svg version="1.1" xmlns="http://www.w3.org/2000/svg" xmlns:xlink="http://www.w3.org/1999/xlink" preserveAspectRatio="xMidYMid meet" viewBox="0 0 640 640" width="640" height="640"><defs><path d="M319.5 32.62C319.56 66.52 319.6 85.35 319.6 89.11C361.37 89.08 403.71 99.71 442.48 122.09C442.48 122.09 442.48 122.09 442.48 122.09C559.64 189.73 599.25 340.11 532.34 457.51C532.34 457.51 532.34 457.51 532.34 457.51C530.87 456.66 523.51 452.41 510.26 444.77L527.68 522.85C572.91 508.62 598.04 500.72 603.07 499.14C589.57 491.83 582.06 487.77 580.56 486.96C664.04 342.37 615.31 156.65 470.72 73.17C470.72 73.17 470.72 73.17 470.72 73.17C423.11 45.68 371.14 32.62 319.85 32.62C319.85 32.62 319.85 32.62 319.85 32.62C319.74 32.62 319.62 32.62 319.5 32.62" id="argM2YoVe"></path><linearGradient id="gradientauCRjEXx1" gradientUnits="userSpaceOnUse" x1="249.51" y1="153.85" x2="664.19" y2="393.28"><stop style="stop-color: #f8cccd;stop-opacity: 1" offset="0%"></stop><stop style="stop-color: #e43230;stop-opacity: 1" offset="100%"></stop></linearGradient><path d="M18.68 334.88C18.68 334.88 18.68 334.88 18.68 334.88C18.68 389.98 33.42 441.63 59.17 486.11C59.17 486.11 59.17 486.11 59.17 486.11C88.5 469.11 104.79 459.67 108.05 457.78C87.14 421.63 75.16 379.65 75.16 334.88C75.16 334.88 75.16 334.88 75.16 334.88C75.16 199.59 184.47 89.83 319.59 89.08C319.59 89.08 319.59 89.08 319.59 89.08C319.59 90.78 319.59 99.28 319.58 114.57L378.5 60.44C343.56 28.38 324.15 10.56 320.27 7C320.65 20.65 320.88 29.18 320.98 32.59C154.02 32.59 18.68 167.93 18.68 334.88Z" id="k50YTxOvGH"></path><linearGradient id="gradientb4GXExyv2" gradientUnits="userSpaceOnUse" x1="198.59" y1="486.12" x2="198.59" y2="7"><stop style="stop-color: #ffffff;stop-opacity: 1" offset="0%"></stop><stop style="stop-color: #3b5098;stop-opacity: 1" offset="100%"></stop></linearGradient><path d="M38.42 497.43C44.96 493.41 48.59 491.18 49.32 490.73C55.86 486.71 59.49 484.47 60.22 484.03C101.96 556.32 168.57 604.1 242.81 623.38C242.81 623.38 242.81 623.38 242.81 623.38C317.06 642.65 398.95 633.41 471.23 591.68C471.23 591.68 471.23 591.68 471.23 591.68C495.09 577.9 516.37 561.36 534.87 542.71C534.87 542.71 534.87 542.71 534.87 542.71C552.36 523.07 544.82 531.72 560.83 512.54C560.83 512.54 560.83 512.54 560.83 512.54C557.51 513.58 530.92 521.95 527.6 522.99C521.39 495.19 517.93 479.74 517.24 476.65C503.71 492.76 508.76 487.02 494.71 502.97C494.71 502.97 494.71 502.97 494.71 502.97C479.39 517.85 462.38 531.56 443 542.75C443 542.75 443 542.75 443 542.75C384.41 576.58 318.18 584.3 258.06 568.98C258.06 568.98 258.06 568.98 258.06 568.98C197.94 553.66 143.95 515.3 109.84 456.99C109.84 456.99 109.84 456.99 109.84 456.99C110.58 456.56 114.26 454.44 120.88 450.61L131.91 444.25L93.74 432.26L55.58 420.28L47 458.86L38.42 497.43Z" id="a1nZeKjFgn"></path><linearGradient id="gradientc7dgy5P6Po" gradientUnits="userSpaceOnUse" x1="483.64" y1="378.83" x2="98.37" y2="601.27"><stop style="stop-color: #ffffff;stop-opacity: 1" offset="0%"></stop><stop style="stop-color: #49a838;stop-opacity: 1" offset="100%"></stop></linearGradient><path d="M231.38 192.63C231.38 287.59 175.39 362.56 170.71 362.56C159.85 362.56 134.7 297.45 126.56 297.45C118.42 297.45 93.26 362.56 82.41 362.56C77.72 362.56 29.38 299.91 29.38 215.32C29.38 147.74 34.07 151.44 39.25 151.44C42.31 151.44 66.77 151.44 69.83 151.44C72.3 151.44 75.5 151.69 75.5 154.89C75.5 157.36 68.35 174.62 68.35 207.18C68.35 267.85 83.15 296.21 88.82 296.21C96.47 296.21 116.69 261.19 116.69 202.5C116.69 169.69 112.25 157.85 112.25 154.65C112.25 151.69 113.73 151.44 116.45 151.44C119.65 151.44 145.3 151.44 148.51 151.44C151.71 151.44 154.67 151.94 154.67 155.63C154.67 159.83 149.99 174.38 149.99 201.75C149.99 256.75 164.05 296.21 171.45 296.21C180.82 296.21 198.08 252.81 198.08 211.37C198.08 185.23 189.7 158.35 189.7 155.14C189.7 151.19 192.66 151.44 194.88 151.44C199.42 151.44 213.03 151.44 217.57 151.44C223.98 151.44 231.38 147.74 231.38 192.63Z" id="a10OqhfWid"></path><path d="M341.88 245.41C350.51 245.41 354.46 244.18 354.46 237.27C354.46 221.98 336.21 189.92 326.84 189.92C313.52 189.92 287.13 229.13 287.13 247.14C287.13 250.1 288.86 251.82 291.82 251.82C296.25 251.82 320.18 245.41 341.88 245.41ZM342.62 353.68C342.62 346.77 361.61 322.11 361.61 294C361.61 282.9 351.01 278.71 339.91 278.71C317.46 278.71 281.7 282.65 281.7 310.77C281.7 330.25 297.73 351.22 297.73 354.92C297.73 356.39 296.25 356.64 293.05 356.64C289.52 356.64 261.31 356.64 257.78 356.64C245.2 356.64 241.75 334.44 241.75 302.38C241.75 196.82 315 147.74 325.85 147.74C333.99 147.74 397.62 183.01 397.62 297.45C397.62 363.3 387.01 356.64 379.62 356.64C374.09 356.64 357.52 356.64 351.99 356.64C349.77 356.64 342.62 357.38 342.62 353.68Z" id="a2pHq2HNMs"></path><path d="M418.1 268.84C418.1 147 430.92 151.44 435.12 151.44C437.39 151.44 455.54 151.44 457.81 151.44C467.42 151.44 470.88 151.44 482.96 167.97C506.15 199.78 507.63 217.78 512.56 217.78C516.26 217.78 517.74 199.78 543.88 167.97C557.69 151.19 561.39 151.44 571.01 151.44C572.94 151.44 588.32 151.44 590.25 151.44C594.44 151.44 607.27 147 607.27 268.84C607.27 361.33 599.87 356.64 593.7 356.64C590.54 356.64 565.29 356.64 562.13 356.64C559.17 356.64 553.25 357.38 553.25 352.94C553.25 349.49 567.31 305.09 567.31 240.72C567.31 235.54 568.05 205.21 559.91 205.21C552.76 205.21 543.39 229.62 540.92 235.54C520.21 286.11 528.59 309.29 512.06 309.29C491.35 309.29 499.49 286.11 477.53 235.54C475.07 230.12 466.93 205.21 459.29 205.21C451.15 205.21 451.39 235.54 451.39 240.72C451.39 305.09 466.93 349.49 466.93 352.94C466.93 357.38 461.01 356.64 458.05 356.64C452.77 356.64 436.94 356.64 431.66 356.64C425.5 356.64 418.1 361.33 418.1 268.84Z" id="araJcTQit"></path><path d="M398.15 465.18C398.15 508.31 363.18 543.28 320.04 543.28C276.91 543.28 241.94 508.31 241.94 465.18C241.94 422.04 276.91 387.07 320.04 387.07C363.18 387.07 398.15 422.04 398.15 465.18" id="a6kmdRUw3"></path><path d="M340.56 411.15L340.56 444.53L370.72 444.53L370.72 485.15L340.56 485.15L340.56 515.31L299.94 515.31L299.94 485.15L269.78 485.15L269.78 444.53L299.94 444.53L299.94 411.15L340.56 411.15Z" id="bulfLNlVq"></path></defs><g><g><g><use xlink:href="#argM2YoVe" opacity="1" fill="url(#gradientauCRjEXx1)"></use><g><use xlink:href="#argM2YoVe" opacity="1" fill-opacity="0" stroke="#ffffff" stroke-width="4" stroke-opacity="1"></use></g></g><g><use xlink:href="#k50YTxOvGH" opacity="1" fill="url(#gradientb4GXExyv2)"></use><g><use xlink:href="#k50YTxOvGH" opacity="1" fill-opacity="0" stroke="#ffffff" stroke-width="4" stroke-opacity="1"></use></g></g><g><use xlink:href="#a1nZeKjFgn" opacity="1" fill="url(#gradientc7dgy5P6Po)"></use><g><use xlink:href="#a1nZeKjFgn" opacity="1" fill-opacity="0" stroke="#ffffff" stroke-width="4" stroke-opacity="1"></use></g></g><g><use xlink:href="#a10OqhfWid" opacity="1" fill="#ffffff" fill-opacity="1"></use><g><use xlink:href="#a10OqhfWid" opacity="1" fill-opacity="0" stroke="#ffffff" stroke-width="4" stroke-opacity="1"></use></g></g><g><use xlink:href="#a2pHq2HNMs" opacity="1" fill="#ffffff" fill-opacity="1"></use><g><use xlink:href="#a2pHq2HNMs" opacity="1" fill-opacity="0" stroke="#ffffff" stroke-width="4" stroke-opacity="1"></use></g></g><g><use xlink:href="#araJcTQit" opacity="1" fill="#ffffff" fill-opacity="1"></use><g><use xlink:href="#araJcTQit" opacity="1" fill-opacity="0" stroke="#ffffff" stroke-width="4" stroke-opacity="1"></use></g></g><g><use xlink:href="#a6kmdRUw3" opacity="1" fill="#de2c2d" fill-opacity="1"></use><g><use xlink:href="#a6kmdRUw3" opacity="1" fill-opacity="0" stroke="#ffffff" stroke-width="4" stroke-opacity="1"></use></g></g><g><use xlink:href="#bulfLNlVq" opacity="1" fill="#ffffff" fill-opacity="1"></use><g><use xlink:href="#bulfLNlVq" opacity="1" fill-opacity="0" stroke="#ffffff" stroke-width="4" stroke-opacity="1"></use></g></g></g></g></svg>